<?xml version="1.0" encoding="UTF-8" standalone="no"?>
<!DOCTYPE svg PUBLIC "-//W3C//DTD SVG 1.1//EN"
 "http://www.w3.org/Graphics/SVG/1.1/DTD/svg11.dtd">
<!-- Generated by graphviz version 2.43.0 (0)
 -->
<!-- Title: ColorClockCableHarness Pages: 1 -->
<svg width="713pt" height="521pt"
 viewBox="0.00 0.00 712.72 521.00" xmlns="http://www.w3.org/2000/svg" xmlns:xlink="http://www.w3.org/1999/xlink">
<g id="graph0" class="graph" transform="scale(1 1) rotate(0) translate(4 517)">
<title>ColorClockCableHarness</title>
<polygon fill="white" stroke="transparent" points="-4,4 -4,-517 708.72,-517 708.72,4 -4,4"/>
<text text-anchor="middle" x="352.36" y="-7.8" font-family="Courier New" font-size="14.00">ColorClock Wire Harness Configuration</text>
<g id="clust1" class="cluster">
<title>cluster_v1</title>
<polygon fill="none" stroke="black" points="8,-272 8,-505 696.72,-505 696.72,-272 8,-272"/>
<text text-anchor="middle" x="352.36" y="-489.8" font-family="Courier New" font-size="14.00">ColorClock Version 1</text>
</g>
<g id="clust2" class="cluster">
<title>cluster_home_display</title>
<polygon fill="none" stroke="black" points="219.36,-31 219.36,-264 553.72,-264 553.72,-31 219.36,-31"/>
<text text-anchor="middle" x="386.54" y="-248.8" font-family="Courier New" font-size="14.00">Home Display</text>
</g>
<!-- electronics_box -->
<g id="node1" class="node">
<title>electronics_box</title>
<polygon fill="none" stroke="#af5fd7" points="688.72,-405 581.72,-405 581.72,-367 688.72,-367 688.72,-405"/>
<text text-anchor="middle" x="635.22" y="-389.8" font-family="Courier New" font-size="14.00">Electronics</text>
<text text-anchor="middle" x="635.22" y="-374.8" font-family="Courier New" font-size="14.00">Box</text>
</g>
<!-- molex_connector0 -->
<g id="node2" class="node">
<title>molex_connector0</title>
<polygon fill="none" stroke="#af5fd7" points="520.72,-404 463.72,-404 463.72,-368 520.72,-368 520.72,-404"/>
<text text-anchor="middle" x="492.22" y="-388.6" font-family="Courier New" font-size="8.00">Molex</text>
<text text-anchor="middle" x="492.22" y="-379.6" font-family="Courier New" font-size="8.00">Connector</text>
</g>
<!-- molex_connector0&#45;&gt;electronics_box -->
<g id="edge1" class="edge">
<title>molex_connector0&#45;&gt;electronics_box</title>
<path fill="none" stroke="#5fafd7" d="M520.75,-386C538.06,-386 560.96,-386 581.65,-386"/>
</g>
<!-- molex_connector1 -->
<g id="node3" class="node">
<title>molex_connector1</title>
<polygon fill="none" stroke="#af5fd7" points="343.54,-404 286.54,-404 286.54,-368 343.54,-368 343.54,-404"/>
<text text-anchor="middle" x="315.04" y="-388.6" font-family="Courier New" font-size="8.00">Molex</text>
<text text-anchor="middle" x="315.04" y="-379.6" font-family="Courier New" font-size="8.00">Connector</text>
</g>
<!-- molex_connector1&#45;&gt;molex_connector0 -->
<g id="edge2" class="edge">
<title>molex_connector1&#45;&gt;molex_connector0</title>
<path fill="none" stroke="#5fafd7" d="M343.8,-386C376.6,-386 430.85,-386 463.6,-386"/>
</g>
<!-- light_display -->
<g id="node4" class="node">
<title>light_display</title>
<ellipse fill="none" stroke="#af5fd7" cx="103.68" cy="-386" rx="87.86" ry="87.86"/>
<text text-anchor="middle" x="103.68" y="-389.8" font-family="Courier New" font-size="14.00">ColorClock</text>
<text text-anchor="middle" x="103.68" y="-374.8" font-family="Courier New" font-size="14.00">Light Display</text>
</g>
<!-- light_display&#45;&gt;molex_connector1 -->
<g id="edge3" class="edge">
<title>light_display&#45;&gt;molex_connector1</title>
<path fill="none" stroke="#5fafd7" d="M191.65,-386C225.58,-386 262.07,-386 286.29,-386"/>
</g>
<!-- position_node_top -->
<!-- position_node_bottom -->
<!-- position_node_top&#45;&gt;position_node_bottom -->
<!-- electronics_box_ -->
<g id="node6" class="node">
<title>electronics_box_</title>
<polygon fill="none" stroke="#af5fd7" points="545.72,-164 438.72,-164 438.72,-126 545.72,-126 545.72,-164"/>
<text text-anchor="middle" x="492.22" y="-148.8" font-family="Courier New" font-size="14.00">Electronics</text>
<text text-anchor="middle" x="492.22" y="-133.8" font-family="Courier New" font-size="14.00">Box</text>
</g>
<!-- light_display_ -->
<g id="node7" class="node">
<title>light_display_</title>
<ellipse fill="none" stroke="#af5fd7" cx="315.04" cy="-145" rx="87.86" ry="87.86"/>
<text text-anchor="middle" x="315.04" y="-148.8" font-family="Courier New" font-size="14.00">ColorClock</text>
<text text-anchor="middle" x="315.04" y="-133.8" font-family="Courier New" font-size="14.00">Light Display</text>
</g>
<!-- light_display_&#45;&gt;electronics_box_ -->
<g id="edge4" class="edge">
<title>light_display_&#45;&gt;electronics_box_</title>
<path fill="none" stroke="#5fafd7" d="M402.86,-145C415.08,-145 427.32,-145 438.62,-145"/>
</g>
</g>
</svg>
