<?xml version="1.0" encoding="UTF-8" standalone="no"?>
<!DOCTYPE svg PUBLIC "-//W3C//DTD SVG 1.1//EN"
 "http://www.w3.org/Graphics/SVG/1.1/DTD/svg11.dtd">
<!-- Generated by graphviz version 2.43.0 (0)
 -->
<!-- Title: ColorClockCableHarness Pages: 1 -->
<svg width="874pt" height="534pt"
 viewBox="0.00 0.00 873.72 534.00" xmlns="http://www.w3.org/2000/svg" xmlns:xlink="http://www.w3.org/1999/xlink">
<g id="graph0" class="graph" transform="scale(1 1) rotate(0) translate(4 530)">
<title>ColorClockCableHarness</title>
<polygon fill="white" stroke="transparent" points="-4,4 -4,-530 869.72,-530 869.72,4 -4,4"/>
<text text-anchor="middle" x="432.86" y="-10" font-family="Courier New" font-size="20.00">ColorClock Wire Harness Configuration</text>
<g id="clust1" class="cluster">
<title>cluster_v1</title>
<polygon fill="none" stroke="black" points="8,-282 8,-518 857.72,-518 857.72,-282 8,-282"/>
<text text-anchor="middle" x="432.86" y="-501.2" font-family="Courier New" font-size="16.00">ColorClock Version 1</text>
</g>
<g id="clust2" class="cluster">
<title>cluster_home_display</title>
<polygon fill="none" stroke="black" points="219.36,-38 219.36,-274 714.72,-274 714.72,-38 219.36,-38"/>
<text text-anchor="middle" x="467.04" y="-257.2" font-family="Courier New" font-size="16.00">Home Display</text>
</g>
<!-- electronics_box -->
<g id="node1" class="node">
<title>electronics_box</title>
<polygon fill="none" stroke="#5f5fd7" points="849.72,-415 742.72,-415 742.72,-377 849.72,-377 849.72,-415"/>
<text text-anchor="middle" x="796.22" y="-399.8" font-family="Courier New" font-size="14.00">Electronics</text>
<text text-anchor="middle" x="796.22" y="-384.8" font-family="Courier New" font-size="14.00">Box</text>
</g>
<!-- molex_connector0 -->
<g id="node2" class="node">
<title>molex_connector0</title>
<polygon fill="none" stroke="#5f5fd7" points="688.72,-414 617.72,-414 617.72,-378 688.72,-378 688.72,-414"/>
<text text-anchor="middle" x="653.22" y="-399" font-family="Courier New" font-size="10.00">Molex</text>
<text text-anchor="middle" x="653.22" y="-388" font-family="Courier New" font-size="10.00">Connector</text>
</g>
<!-- molex_connector0&#45;&gt;electronics_box -->
<g id="edge4" class="edge">
<title>molex_connector0&#45;&gt;electronics_box</title>
<path fill="none" stroke="#5fafd7" d="M689.08,-396C705.23,-396 724.76,-396 742.64,-396"/>
</g>
<!-- molex_connector1 -->
<g id="node3" class="node">
<title>molex_connector1</title>
<polygon fill="none" stroke="#5f5fd7" points="536.72,-414 465.72,-414 465.72,-378 536.72,-378 536.72,-414"/>
<text text-anchor="middle" x="501.22" y="-399" font-family="Courier New" font-size="10.00">Molex</text>
<text text-anchor="middle" x="501.22" y="-388" font-family="Courier New" font-size="10.00">Connector</text>
</g>
<!-- molex_connector1&#45;&gt;molex_connector0 -->
<g id="edge3" class="edge">
<title>molex_connector1&#45;&gt;molex_connector0</title>
<path fill="none" stroke="#5fafd7" d="M537.02,-396C561.25,-396 593.43,-396 617.62,-396"/>
</g>
<!-- terminal_block -->
<g id="node4" class="node">
<title>terminal_block</title>
<polygon fill="none" stroke="#5f5fd7" points="365.54,-416.5 264.54,-416.5 264.54,-375.5 365.54,-375.5 365.54,-416.5"/>
<text text-anchor="middle" x="315.04" y="-404.5" font-family="Courier New" font-size="10.00">Terminal</text>
<text text-anchor="middle" x="315.04" y="-393.5" font-family="Courier New" font-size="10.00">Block</text>
<text text-anchor="middle" x="315.04" y="-382.5" font-family="Courier New" font-size="10.00">(on structure)</text>
</g>
<!-- terminal_block&#45;&gt;molex_connector1 -->
<g id="edge2" class="edge">
<title>terminal_block&#45;&gt;molex_connector1</title>
<path fill="none" stroke="#5fafd7" d="M365.89,-396C397.42,-396 437.39,-396 465.51,-396"/>
</g>
<!-- light_display -->
<g id="node5" class="node">
<title>light_display</title>
<ellipse fill="none" stroke="#5f5fd7" cx="103.68" cy="-396" rx="87.86" ry="87.86"/>
<text text-anchor="middle" x="103.68" y="-399.8" font-family="Courier New" font-size="14.00">ColorClock</text>
<text text-anchor="middle" x="103.68" y="-384.8" font-family="Courier New" font-size="14.00">Light Display</text>
</g>
<!-- light_display&#45;&gt;terminal_block -->
<g id="edge1" class="edge">
<title>light_display&#45;&gt;terminal_block</title>
<path fill="none" stroke="#5fafd7" d="M191.65,-396C216.48,-396 242.68,-396 264.44,-396"/>
</g>
<!-- position_node_top -->
<!-- position_node_bottom -->
<!-- position_node_top&#45;&gt;position_node_bottom -->
<!-- electronics_box_ -->
<g id="node7" class="node">
<title>electronics_box_</title>
<polygon fill="none" stroke="#5f5fd7" points="706.72,-171 599.72,-171 599.72,-133 706.72,-133 706.72,-171"/>
<text text-anchor="middle" x="653.22" y="-155.8" font-family="Courier New" font-size="14.00">Electronics</text>
<text text-anchor="middle" x="653.22" y="-140.8" font-family="Courier New" font-size="14.00">Box</text>
</g>
<!-- light_display_ -->
<g id="node8" class="node">
<title>light_display_</title>
<ellipse fill="none" stroke="#5f5fd7" cx="315.04" cy="-152" rx="87.86" ry="87.86"/>
<text text-anchor="middle" x="315.04" y="-155.8" font-family="Courier New" font-size="14.00">ColorClock</text>
<text text-anchor="middle" x="315.04" y="-140.8" font-family="Courier New" font-size="14.00">Light Display</text>
</g>
<!-- terminal_block_ -->
<g id="node9" class="node">
<title>terminal_block_</title>
<polygon fill="none" stroke="#5f5fd7" points="563.72,-172.5 438.72,-172.5 438.72,-131.5 563.72,-131.5 563.72,-172.5"/>
<text text-anchor="middle" x="501.22" y="-160.5" font-family="Courier New" font-size="10.00">Terminal</text>
<text text-anchor="middle" x="501.22" y="-149.5" font-family="Courier New" font-size="10.00">Block</text>
<text text-anchor="middle" x="501.22" y="-138.5" font-family="Courier New" font-size="10.00">(on light display)</text>
</g>
<!-- light_display_&#45;&gt;terminal_block_ -->
<g id="edge5" class="edge">
<title>light_display_&#45;&gt;terminal_block_</title>
<path fill="none" stroke="#5fafd7" d="M402.74,-152C414.87,-152 427.13,-152 438.66,-152"/>
</g>
<!-- terminal_block_&#45;&gt;electronics_box_ -->
<g id="edge6" class="edge">
<title>terminal_block_&#45;&gt;electronics_box_</title>
<path fill="none" stroke="#5fafd7" d="M564.1,-152C575.88,-152 588.11,-152 599.57,-152"/>
</g>
</g>
</svg>
