<?xml version="1.0" encoding="UTF-8" standalone="no"?>
<!DOCTYPE svg PUBLIC "-//W3C//DTD SVG 1.1//EN"
 "http://www.w3.org/Graphics/SVG/1.1/DTD/svg11.dtd">
<!-- Generated by graphviz version 2.43.0 (0)
 -->
<!-- Title: top Pages: 1 -->
<svg width="740pt" height="484pt"
 viewBox="0.00 0.00 740.00 484.00" xmlns="http://www.w3.org/2000/svg" xmlns:xlink="http://www.w3.org/1999/xlink">
<g id="graph0" class="graph" transform="scale(1 1) rotate(0) translate(4 480)">
<title>top</title>
<polygon fill="white" stroke="transparent" points="-4,4 -4,-480 736,-480 736,4 -4,4"/>
<g id="clust1" class="cluster">
<title>cluster_ColorClockCableHarness</title>
<polygon fill="none" stroke="black" points="8,-8 8,-468 724,-468 724,-8 8,-8"/>
<text text-anchor="middle" x="366" y="-448" font-family="Consolas" font-size="20.00">ColorClock Wire Harness Configuration</text>
<text text-anchor="middle" x="366" y="-426" font-family="Consolas" font-size="20.00"> </text>
</g>
<g id="clust2" class="cluster">
<title>cluster_v1</title>
<polygon fill="none" stroke="black" stroke-width="0.25" points="16,-207 16,-408 716,-408 716,-207 16,-207"/>
<text text-anchor="middle" x="366" y="-392.8" font-family="Consolas" font-size="14.00">ColorClock Version 1</text>
</g>
<g id="clust3" class="cluster">
<title>cluster_v2</title>
<polygon fill="none" stroke="black" stroke-width="0.25" points="16,-16 16,-199 716,-199 716,-16 16,-16"/>
<text text-anchor="middle" x="366" y="-183.8" font-family="Consolas" font-size="14.00">Home Display</text>
</g>
<!-- electronics_box1 -->
<g id="node1" class="node">
<title>electronics_box1</title>
<polygon fill="none" stroke="#af5fd7" points="708,-323 564,-323 564,-287 708,-287 708,-323"/>
<text text-anchor="middle" x="636" y="-302.5" font-family="Consolas" font-size="10.00">Electronics Box</text>
</g>
<!-- molex_connector1 -->
<g id="node2" class="node">
<title>molex_connector1</title>
<polygon fill="none" stroke="#af5fd7" points="348,-323 204,-323 204,-287 348,-287 348,-323"/>
<text text-anchor="middle" x="276" y="-302.5" font-family="Consolas" font-size="10.00">Molex Connector</text>
</g>
<!-- terminal_block1 -->
<g id="node4" class="node">
<title>terminal_block1</title>
<polygon fill="none" stroke="#af5fd7" points="528,-323 384,-323 384,-287 528,-287 528,-323"/>
<text text-anchor="middle" x="456" y="-308" font-family="Consolas" font-size="10.00">Terminal Block</text>
<text text-anchor="middle" x="456" y="-297" font-family="Consolas" font-size="10.00">(on structure)</text>
</g>
<!-- molex_connector1&#45;&#45;terminal_block1 -->
<g id="edge2" class="edge">
<title>molex_connector1&#45;&#45;terminal_block1</title>
<path fill="none" stroke="#5fafd7" d="M348.12,-305C359.93,-305 372.18,-305 384,-305"/>
</g>
<!-- light_display1 -->
<g id="node3" class="node">
<title>light_display1</title>
<ellipse fill="none" stroke="#af5fd7" cx="96" cy="-305" rx="72" ry="72"/>
<text text-anchor="middle" x="96" y="-313.5" font-family="Consolas" font-size="10.00">ColorClock</text>
<text text-anchor="middle" x="96" y="-302.5" font-family="Consolas" font-size="10.00">Light</text>
<text text-anchor="middle" x="96" y="-291.5" font-family="Consolas" font-size="10.00">Display</text>
</g>
<!-- light_display1&#45;&#45;molex_connector1 -->
<g id="edge1" class="edge">
<title>light_display1&#45;&#45;molex_connector1</title>
<path fill="none" stroke="#5fafd7" d="M168.12,-305C179.93,-305 192.18,-305 204,-305"/>
</g>
<!-- terminal_block1&#45;&#45;electronics_box1 -->
<g id="edge3" class="edge">
<title>terminal_block1&#45;&#45;electronics_box1</title>
<path fill="none" stroke="#5fafd7" d="M528.12,-305C539.93,-305 552.18,-305 564,-305"/>
</g>
<!-- top -->
<g id="node5" class="node">
<title>top</title>
<ellipse fill="#af5fd7" stroke="#af5fd7" cx="96" cy="-215" rx="0" ry="0"/>
</g>
<!-- bot -->
<g id="node9" class="node">
<title>bot</title>
<ellipse fill="#af5fd7" stroke="#af5fd7" cx="276" cy="-168" rx="0" ry="0"/>
</g>
<!-- top&#45;&#45;bot -->
<!-- electronics_box2 -->
<g id="node6" class="node">
<title>electronics_box2</title>
<polygon fill="none" stroke="#af5fd7" points="708,-114 564,-114 564,-78 708,-78 708,-114"/>
<text text-anchor="middle" x="636" y="-93.5" font-family="Consolas" font-size="10.00">Electronics Box</text>
</g>
<!-- light_display2 -->
<g id="node7" class="node">
<title>light_display2</title>
<ellipse fill="none" stroke="#af5fd7" cx="96" cy="-96" rx="72" ry="72"/>
<text text-anchor="middle" x="96" y="-104.5" font-family="Consolas" font-size="10.00">ColorClock</text>
<text text-anchor="middle" x="96" y="-93.5" font-family="Consolas" font-size="10.00">Light</text>
<text text-anchor="middle" x="96" y="-82.5" font-family="Consolas" font-size="10.00">Display</text>
</g>
<!-- terminal_block2 -->
<g id="node8" class="node">
<title>terminal_block2</title>
<polygon fill="none" stroke="#af5fd7" points="348,-114 204,-114 204,-78 348,-78 348,-114"/>
<text text-anchor="middle" x="276" y="-99" font-family="Consolas" font-size="10.00">Terminal Block</text>
<text text-anchor="middle" x="276" y="-88" font-family="Consolas" font-size="10.00">(on light display)</text>
</g>
<!-- light_display2&#45;&#45;terminal_block2 -->
<g id="edge4" class="edge">
<title>light_display2&#45;&#45;terminal_block2</title>
<path fill="none" stroke="#5fafd7" d="M168.12,-96C179.93,-96 192.18,-96 204,-96"/>
</g>
<!-- terminal_block2&#45;&#45;electronics_box2 -->
<g id="edge5" class="edge">
<title>terminal_block2&#45;&#45;electronics_box2</title>
<path fill="none" stroke="#5fafd7" d="M348.16,-96C410.76,-96 501.42,-96 563.98,-96"/>
</g>
</g>
</svg>
